<svg class="svg-icon" style="width: 1em; height: 1em; vertical-align: middle; fill: #f0ad4e; overflow: hidden;" viewBox="0 0 1024 1024" version="1.1" xmlns="http://www.w3.org/2000/svg">
    <path d="M364.796 190.786v146.888h-237.67c-15.969 0-28.182 10.546-28.182 22.599v463.261c0 12.052 13.152 22.598 28.182 22.598h243.307c15.969 0 17.692-10.546 17.692-22.598V669.791h251.813v153.742c0 12.806-0.834 22.598 14.196 22.598h243.307c15.97 0 28.182-10.546 28.182-22.598V360.272c0-12.806-13.152-22.599-28.182-22.599H664.467V190.786c0-12.805-13.151-22.598-28.182-22.598H392.979c-15.97 0-28.183 10.546-28.183 22.598z m3.236 638.923H227.643V592.28c0-4.52-4.698-7.533-9.395-7.533-5.636 0-9.394 3.766-9.394 7.533v237.429h-86.321V354.85h165.232v348.913c0 4.52 4.697 7.533 9.394 7.533 5.636 0 9.394-3.766 9.394-7.533V354.097h60.54l0.939 475.612z m434.529-475.612v330.082c0 4.519 4.696 7.533 9.394 7.533 5.636 0 9.394-3.767 9.394-7.533V354.097h79.745V829.71H742.439V611.111c0-4.519-4.698-7.533-9.394-7.533-5.637 0-9.394 3.767-9.394 7.533v218.598h-60.123V656.307 354.85h139.033v12.955-13.708zM469.071 184.61v168.13c0 4.519 4.697 7.533 9.394 7.533 5.637 0 9.394-3.767 9.394-7.533V184.61h68.577v104.854c0 4.52 4.696 7.533 9.394 7.533 5.636 0 9.394-3.766 9.394-7.533V184.61h64.714v461.904H388.387V184.61h80.684z m273.368 365.486v-37.664c0-4.519-4.698-7.533-9.394-7.533-5.637 0-9.394 3.767-9.394 7.533v37.664c0 4.519 4.696 7.533 9.394 7.533 5.636 0 9.394-3.013 9.394-7.533z" fill="#f0ad4e" />
</svg>
