<svg id="Layer_1" data-name="Layer 1" xmlns="http://www.w3.org/2000/svg" viewBox="0 0 122.88 105.31">
    <defs>
        <style>.cls-1 { fill: white; fill-rule: evenodd; }</style>
    </defs>
    <title>home-extension</title>
    <path class="cls-1" d="M91.909,84.334h-8.301v-25.27c0-2.071-1.679-3.75-3.75-3.75H65.322c-2.071,0-3.75,1.679-3.75,3.75v25.27H47.324V34.615  l27.091-20.499l15.238,11.531c1.651,1.251,4.004,0.925,5.253-0.728c1.25-1.651,0.924-4.003-0.728-5.253L76.681,6.426  c-1.303-0.986-3.229-0.986-4.531,0L41.917,29.301c-1.24,0.612-2.093,1.889-2.093,3.365v7.185L7.35,62.219  c-1.016,0.699-1.623,1.854-1.623,3.088v22.777c0,2.071,1.679,3.75,3.75,3.75h82.432c2.071,0,3.75-1.679,3.75-3.75  S93.98,84.334,91.909,84.334z M13.227,67.277l26.597-18.32v35.376h-4.808V71.875c0-2.071-1.679-3.75-3.75-3.75h-9.873  c-2.071,0-3.75,1.679-3.75,3.75v12.459h-4.417V67.277z M25.144,84.334v-8.709h2.373v8.709H25.144z M69.072,84.334v-21.52h7.036  v21.52H69.072z M66.329,51.75H54.377c-1.657,0-3-1.343-3-3V38.3c0-1.657,1.343-3,3-3h11.952c1.657,0,3,1.343,3,3v10.45  C69.329,50.407,67.986,51.75,66.329,51.75z M57.377,45.75h5.952V41.3h-5.952V45.75z M89.911,51.75H77.959c-1.657,0-3-1.343-3-3V38.3  c0-1.657,1.343-3,3-3h11.952c1.657,0,3,1.343,3,3v10.45C92.911,50.407,91.568,51.75,89.911,51.75z M80.959,45.75h5.952V41.3h-5.952  V45.75z"/>
</svg>
